<?xml version="1.0" encoding="utf-8"?>
<!-- Generator: Adobe Illustrator 25.2.3, SVG Export Plug-In . SVG Version: 6.00 Build 0)  -->
<svg version="1.1" id="Layer_1" xmlns="http://www.w3.org/2000/svg" xmlns:xlink="http://www.w3.org/1999/xlink" x="0px" y="0px"
	 viewBox="0 0 1920 1080" style="enable-background:new 0 0 1920 1080;" xml:space="preserve">
<style type="text/css">
	.st0{fill:none;stroke:#000000;stroke-width:0.8504;stroke-linecap:round;stroke-linejoin:round;stroke-miterlimit:10;}
</style>
<path class="st0" d="M210.64,487.97v-314.1l953.96-55.73V488.7C1164.59,488.7,208.29,487.25,210.64,487.97z"/>
<rect x="210.71" y="737.38" class="st0" width="953.66" height="251.29"/>
<rect x="210.71" y="487.68" class="st0" width="471.83" height="249.57"/>
<rect x="682.77" y="487.68" class="st0" width="1161.2" height="249.57"/>
<g>
	<g>
		<g id="LWPOLYLINE_7_">
			<path class="st0" d="M498.47,902.39L498.47,902.39z"/>
		</g>
		<g id="LWPOLYLINE_8_">
			<path class="st0" d="M536.91,928.15c-12.06,8.69-26.43,13.35-41.15,13.35H425.1c0,0,0,0,0,0c-10.49,0-18.99-8.75-18.99-19.54
				c0-10.79,8.5-19.54,18.99-19.54h70.58c6.98,0,13.79-2.21,19.51-6.33l324.49-233.74c12.06-8.69,26.43-13.35,41.15-13.35h66.1
				c10.49,0,18.99,8.75,18.99,19.54s-8.5,19.54-18.99,19.54h-66.02c-6.98,0-13.79,2.21-19.51,6.33L536.87,928.18"/>
		</g>
		<g id="LWPOLYLINE_9_">
			<polyline class="st0" points="502.79,953.17 456.94,953.17 456.94,988.48 537.24,988.48 885.51,737.62 928.52,737.62 
				928.52,699.75 879.43,699.75 			"/>
		</g>
		<g id="LWPOLYLINE_12_">
			<path class="st0" d="M879.43,699.75c-3.95,0.36-7.74,1.77-10.99,4.11l-38.58,27.79l-87.07,62.72l-87.07,62.72l-87.07,62.72
				l-25.16,18.12c-12.04,8.67-26.08,13.93-40.71,15.24"/>
		</g>
		<g id="LWPOLYLINE_15_">
			<path class="st0" d="M946.93,639.84h-66.1c-16.55,0-32.7,5.24-46.26,15.01L510.08,888.59c-4.22,3.04-9.25,4.67-14.4,4.67H425.1
				c-15.41,0-27.9,12.85-27.9,28.7c0,15.85,12.49,28.7,27.9,28.7c0,0,0,0,0,0h70.68c16.5-0.17,32.57-5.38,46.19-14.97l324.55-233.78
				c4.22-3.04,9.25-4.67,14.4-4.67h66.02c15.41,0,27.9-12.85,27.9-28.7S962.34,639.84,946.93,639.84z"/>
		</g>
		<g>
			<g id="LWPOLYLINE_10_">
				<path class="st0" d="M572.67,914.94h-20.42c0.23,4.23,2.17,8.16,5.34,10.86"/>
			</g>
			<g id="LWPOLYLINE_11_">
				<path class="st0" d="M557.59,925.8h-20.42c0.27,4.82,2.75,9.23,6.68,11.88"/>
			</g>
			<g id="LWPOLYLINE_16_">
				<path class="st0" d="M587.75,904.08h-20.42c0.23,4.23,2.17,8.16,5.34,10.86"/>
			</g>
			<g id="LWPOLYLINE_17_">
				<path class="st0" d="M602.83,893.21h-20.42c0.23,4.23,2.17,8.16,5.34,10.86"/>
			</g>
			<g id="LWPOLYLINE_18_">
				<path class="st0" d="M617.91,882.35h-20.42c0.23,4.23,2.17,8.16,5.34,10.86"/>
			</g>
			<g id="LWPOLYLINE_19_">
				<path class="st0" d="M632.99,871.49h-20.42c0.23,4.23,2.17,8.16,5.34,10.86"/>
			</g>
			<g id="LWPOLYLINE_20_">
				<path class="st0" d="M648.07,860.63h-20.42c0.23,4.23,2.17,8.16,5.34,10.86"/>
			</g>
			<g id="LWPOLYLINE_21_">
				<path class="st0" d="M663.15,849.76h-20.42c0.23,4.23,2.17,8.16,5.34,10.86"/>
			</g>
			<g id="LWPOLYLINE_22_">
				<path class="st0" d="M678.23,838.9h-20.42c0.23,4.23,2.17,8.16,5.34,10.86"/>
			</g>
			<g id="LWPOLYLINE_23_">
				<path class="st0" d="M693.31,828.04h-20.42c0.23,4.23,2.17,8.16,5.34,10.86"/>
			</g>
			<g id="LWPOLYLINE_24_">
				<path class="st0" d="M708.39,817.18h-20.42c0.23,4.23,2.17,8.16,5.34,10.86"/>
			</g>
			<g id="LWPOLYLINE_25_">
				<path class="st0" d="M723.47,806.31h-20.42c0.23,4.23,2.17,8.16,5.34,10.86"/>
			</g>
			<g id="LWPOLYLINE_26_">
				<path class="st0" d="M738.55,795.45h-20.42c0.23,4.23,2.17,8.16,5.34,10.86"/>
			</g>
			<g id="LWPOLYLINE_27_">
				<path class="st0" d="M753.63,784.59h-20.42c0.23,4.23,2.17,8.16,5.34,10.86"/>
			</g>
			<g id="LWPOLYLINE_28_">
				<path class="st0" d="M768.71,773.73h-20.42c0.23,4.23,2.17,8.16,5.34,10.86"/>
			</g>
			<g id="LWPOLYLINE_29_">
				<path class="st0" d="M783.79,762.86h-20.42c0.23,4.23,2.17,8.16,5.34,10.86"/>
			</g>
			<g id="LWPOLYLINE_30_">
				<path class="st0" d="M798.88,752h-20.42c0.23,4.23,2.17,8.16,5.34,10.86"/>
			</g>
			<g id="LWPOLYLINE_31_">
				<path class="st0" d="M813.96,741.14h-20.42c0.23,4.23,2.17,8.16,5.34,10.86"/>
			</g>
			<g id="LWPOLYLINE_32_">
				<path class="st0" d="M829.04,730.27h-20.42c0.23,4.23,2.17,8.16,5.34,10.86"/>
			</g>
			<g id="LWPOLYLINE_33_">
				<path class="st0" d="M844.12,719.41h-20.42c0.23,4.23,2.17,8.16,5.34,10.86"/>
			</g>
			<g id="LWPOLYLINE_34_">
				<path class="st0" d="M859.2,708.55h-20.42c0.23,4.23,2.17,8.16,5.34,10.86"/>
			</g>
			<g id="LWPOLYLINE_35_">
				<path class="st0" d="M876.3,697.69h-22.44c0.23,4.23,2.17,8.16,5.34,10.86"/>
			</g>
		</g>
	</g>
</g>
<g>
	<g>
		<g id="LWPOLYLINE_58_">
			<path class="st0" d="M867.49,652.07L867.49,652.07z"/>
		</g>
		<g id="LWPOLYLINE_57_">
			<path class="st0" d="M829.09,677.85L504.56,444.09c-5.72-4.12-12.53-6.33-19.51-6.33h-66.02c-10.49,0-18.99-8.75-18.99-19.54
				s8.5-19.54,18.99-19.54h66.1c14.72,0,29.09,4.66,41.15,13.35l324.49,233.74c5.72,4.12,12.53,6.33,19.51,6.33h70.58
				c10.49,0,18.99,8.75,18.99,19.54c0,10.79-8.5,19.54-18.99,19.54c0,0,0,0,0,0h-70.66c-14.72,0-29.09-4.66-41.15-13.35"/>
		</g>
		<g id="LWPOLYLINE_56_">
			<polyline class="st0" points="486.54,449.43 437.45,449.43 437.45,487.3 480.46,487.3 828.72,738.16 909.02,738.16 
				909.02,702.84 863.17,702.84 			"/>
		</g>
		<g id="LWPOLYLINE_55_">
			<path class="st0" d="M863.17,702.84c-14.64-1.32-28.68-6.58-40.71-15.24l-25.16-18.12l-87.07-62.72l-87.07-62.72l-87.07-62.72
				l-38.58-27.79c-3.25-2.34-7.04-3.76-10.99-4.11"/>
		</g>
		<g id="LWPOLYLINE_52_">
			<path class="st0" d="M391.14,418.22c0,15.85,12.49,28.7,27.9,28.7h66.02c5.15,0,10.18,1.63,14.4,4.67L824,685.37
				c13.61,9.59,29.69,14.79,46.19,14.97h70.68c0,0,0,0,0,0c15.41,0,27.9-12.85,27.9-28.7c0-15.85-12.49-28.7-27.9-28.7h-70.58
				c-5.15,0-10.18-1.63-14.4-4.67L531.39,404.52c-13.56-9.77-29.71-15.01-46.26-15.01h-66.1
				C403.63,389.52,391.14,402.37,391.14,418.22z"/>
		</g>
		<g>
			<g id="LWPOLYLINE_51_">
				<path class="st0" d="M808.37,675.48c3.17-2.7,5.11-6.64,5.34-10.86h-20.42"/>
			</g>
			<g id="LWPOLYLINE_50_">
				<path class="st0" d="M822.12,687.35c3.93-2.64,6.41-7.05,6.68-11.88h-20.42"/>
			</g>
			<g id="LWPOLYLINE_49_">
				<path class="st0" d="M793.29,664.62c3.17-2.7,5.11-6.64,5.34-10.86h-20.42"/>
			</g>
			<g id="LWPOLYLINE_48_">
				<path class="st0" d="M778.21,653.75c3.17-2.7,5.11-6.64,5.34-10.86h-20.42"/>
			</g>
			<g id="LWPOLYLINE_47_">
				<path class="st0" d="M763.13,642.89c3.17-2.7,5.11-6.64,5.34-10.86h-20.42"/>
			</g>
			<g id="LWPOLYLINE_46_">
				<path class="st0" d="M748.05,632.03c3.17-2.7,5.11-6.64,5.34-10.86h-20.42"/>
			</g>
			<g id="LWPOLYLINE_45_">
				<path class="st0" d="M732.97,621.17c3.17-2.7,5.11-6.64,5.34-10.86h-20.42"/>
			</g>
			<g id="LWPOLYLINE_44_">
				<path class="st0" d="M717.89,610.3c3.17-2.7,5.11-6.64,5.34-10.86h-20.42"/>
			</g>
			<g id="LWPOLYLINE_43_">
				<path class="st0" d="M702.81,599.44c3.17-2.7,5.11-6.64,5.34-10.86h-20.42"/>
			</g>
			<g id="LWPOLYLINE_42_">
				<path class="st0" d="M687.73,588.58c3.17-2.7,5.11-6.64,5.34-10.86h-20.42"/>
			</g>
			<g id="LWPOLYLINE_41_">
				<path class="st0" d="M672.65,577.71c3.17-2.7,5.11-6.64,5.34-10.86h-20.42"/>
			</g>
			<g id="LWPOLYLINE_40_">
				<path class="st0" d="M657.57,566.85c3.17-2.7,5.11-6.64,5.34-10.86h-20.42"/>
			</g>
			<g id="LWPOLYLINE_39_">
				<path class="st0" d="M642.49,555.99c3.17-2.7,5.11-6.64,5.34-10.86h-20.42"/>
			</g>
			<g id="LWPOLYLINE_38_">
				<path class="st0" d="M627.41,545.13c3.17-2.7,5.11-6.64,5.34-10.86h-20.42"/>
			</g>
			<g id="LWPOLYLINE_37_">
				<path class="st0" d="M612.33,534.26c3.17-2.7,5.11-6.64,5.34-10.86h-20.42"/>
			</g>
			<g id="LWPOLYLINE_36_">
				<path class="st0" d="M597.25,523.4c3.17-2.7,5.11-6.64,5.34-10.86h-20.42"/>
			</g>
			<g id="LWPOLYLINE_6_">
				<path class="st0" d="M582.17,512.54c3.17-2.7,5.11-6.64,5.34-10.86h-20.42"/>
			</g>
			<g id="LWPOLYLINE_5_">
				<path class="st0" d="M567.09,501.68c3.17-2.7,5.11-6.64,5.34-10.86h-20.42"/>
			</g>
			<g id="LWPOLYLINE_4_">
				<path class="st0" d="M552.01,490.81c3.17-2.7,5.11-6.64,5.34-10.86h-20.42"/>
			</g>
			<g id="LWPOLYLINE_3_">
				<path class="st0" d="M536.93,479.95c3.17-2.7,5.11-6.64,5.34-10.86h-20.42"/>
			</g>
			<g id="LWPOLYLINE_2_">
				<path class="st0" d="M521.85,469.09c3.17-2.7,5.11-6.64,5.34-10.86h-20.42"/>
			</g>
			<g id="LWPOLYLINE_1_">
				<path class="st0" d="M506.77,458.23c3.17-2.7,5.11-6.64,5.34-10.86h-22.44"/>
			</g>
		</g>
	</g>
</g>
<rect x="1356.93" y="608.13" class="st0" width="339.26" height="128.37"/>
<rect x="755.44" y="177.18" class="st0" width="355.76" height="309.92"/>
</svg>
