<svg id="Layer_1" data-name="Layer 1" xmlns="http://www.w3.org/2000/svg" viewBox="0 0 583.69 598.96"><defs><style>.cls-1{fill:#e0ff9a;}</style></defs><g id="LWPOLYLINE"><path class="cls-1" d="M498.47,902.39Z" transform="translate(-391.14 -389.52)"/></g><g id="LWPOLYLINE-2" data-name="LWPOLYLINE"><path class="cls-1" d="M536.91,928.15a70.36,70.36,0,0,1-41.15,13.35H425.1c-10.49,0-19-8.75-19-19.54s8.5-19.54,19-19.54h70.58a33.35,33.35,0,0,0,19.51-6.32L839.68,662.36A70.36,70.36,0,0,1,880.83,649h66.1c10.49,0,19,8.75,19,19.54s-8.5,19.53-19,19.53h-66a33.36,33.36,0,0,0-19.51,6.33L536.87,928.18" transform="translate(-391.14 -389.52)"/></g><g id="LWPOLYLINE-3" data-name="LWPOLYLINE"><polyline class="cls-1" points="111.65 563.65 65.81 563.65 65.81 598.96 146.1 598.96 494.37 348.1 537.38 348.1 537.38 310.23 488.29 310.23"/></g><g id="LWPOLYLINE-4" data-name="LWPOLYLINE"><path class="cls-1" d="M879.43,699.75a22.26,22.26,0,0,0-11,4.12l-38.58,27.78L742.8,794.37l-87.07,62.71L568.67,919.8,543.5,937.92a82.24,82.24,0,0,1-40.71,15.25" transform="translate(-391.14 -389.52)"/></g><g id="LWPOLYLINE-5" data-name="LWPOLYLINE"><path class="cls-1" d="M946.93,639.84h-66.1a79.09,79.09,0,0,0-46.26,15L510.08,888.59a24.63,24.63,0,0,1-14.4,4.67H425.1c-15.41,0-27.9,12.85-27.9,28.7s12.49,28.7,27.9,28.7h70.68a81.67,81.67,0,0,0,46.18-15L866.51,701.92a24.63,24.63,0,0,1,14.4-4.67h66c15.41,0,27.9-12.85,27.9-28.7S962.34,639.84,946.93,639.84Z" transform="translate(-391.14 -389.52)"/></g><g id="LWPOLYLINE-6" data-name="LWPOLYLINE"><path class="cls-1" d="M572.67,914.94H552.25a15.35,15.35,0,0,0,5.34,10.86" transform="translate(-391.14 -389.52)"/></g><g id="LWPOLYLINE-7" data-name="LWPOLYLINE"><path class="cls-1" d="M557.59,925.8H537.17a15.31,15.31,0,0,0,6.68,11.88" transform="translate(-391.14 -389.52)"/></g><g id="LWPOLYLINE-8" data-name="LWPOLYLINE"><path class="cls-1" d="M587.75,904.08H567.33a15.35,15.35,0,0,0,5.34,10.86" transform="translate(-391.14 -389.52)"/></g><g id="LWPOLYLINE-9" data-name="LWPOLYLINE"><path class="cls-1" d="M602.83,893.21H582.41a15.38,15.38,0,0,0,5.34,10.87" transform="translate(-391.14 -389.52)"/></g><g id="LWPOLYLINE-10" data-name="LWPOLYLINE"><path class="cls-1" d="M617.91,882.35H597.49a15.34,15.34,0,0,0,5.34,10.86" transform="translate(-391.14 -389.52)"/></g><g id="LWPOLYLINE-11" data-name="LWPOLYLINE"><path class="cls-1" d="M633,871.49H612.57a15.35,15.35,0,0,0,5.34,10.86" transform="translate(-391.14 -389.52)"/></g><g id="LWPOLYLINE-12" data-name="LWPOLYLINE"><path class="cls-1" d="M648.07,860.63H627.65A15.37,15.37,0,0,0,633,871.49" transform="translate(-391.14 -389.52)"/></g><g id="LWPOLYLINE-13" data-name="LWPOLYLINE"><path class="cls-1" d="M663.15,849.76H642.73a15.38,15.38,0,0,0,5.34,10.87" transform="translate(-391.14 -389.52)"/></g><g id="LWPOLYLINE-14" data-name="LWPOLYLINE"><path class="cls-1" d="M678.23,838.9H657.81a15.37,15.37,0,0,0,5.34,10.86" transform="translate(-391.14 -389.52)"/></g><g id="LWPOLYLINE-15" data-name="LWPOLYLINE"><path class="cls-1" d="M693.31,828H672.89a15.39,15.39,0,0,0,5.34,10.86" transform="translate(-391.14 -389.52)"/></g><g id="LWPOLYLINE-16" data-name="LWPOLYLINE"><path class="cls-1" d="M708.39,817.18H688A15.41,15.41,0,0,0,693.31,828" transform="translate(-391.14 -389.52)"/></g><g id="LWPOLYLINE-17" data-name="LWPOLYLINE"><path class="cls-1" d="M723.47,806.31H703.05a15.41,15.41,0,0,0,5.34,10.87" transform="translate(-391.14 -389.52)"/></g><g id="LWPOLYLINE-18" data-name="LWPOLYLINE"><path class="cls-1" d="M738.55,795.45H718.13a15.39,15.39,0,0,0,5.34,10.86" transform="translate(-391.14 -389.52)"/></g><g id="LWPOLYLINE-19" data-name="LWPOLYLINE"><path class="cls-1" d="M753.63,784.59H733.21a15.39,15.39,0,0,0,5.34,10.86" transform="translate(-391.14 -389.52)"/></g><g id="LWPOLYLINE-20" data-name="LWPOLYLINE"><path class="cls-1" d="M768.71,773.73H748.29a15.41,15.41,0,0,0,5.34,10.86" transform="translate(-391.14 -389.52)"/></g><g id="LWPOLYLINE-21" data-name="LWPOLYLINE"><path class="cls-1" d="M783.79,762.86H763.37a15.41,15.41,0,0,0,5.34,10.87" transform="translate(-391.14 -389.52)"/></g><g id="LWPOLYLINE-22" data-name="LWPOLYLINE"><path class="cls-1" d="M798.88,752H778.45a15.39,15.39,0,0,0,5.34,10.86" transform="translate(-391.14 -389.52)"/></g><g id="LWPOLYLINE-23" data-name="LWPOLYLINE"><path class="cls-1" d="M814,741.14H793.53A15.37,15.37,0,0,0,798.88,752" transform="translate(-391.14 -389.52)"/></g><g id="LWPOLYLINE-24" data-name="LWPOLYLINE"><path class="cls-1" d="M829,730.27H808.61A15.39,15.39,0,0,0,814,741.14" transform="translate(-391.14 -389.52)"/></g><g id="LWPOLYLINE-25" data-name="LWPOLYLINE"><path class="cls-1" d="M844.12,719.41H823.69A15.35,15.35,0,0,0,829,730.27" transform="translate(-391.14 -389.52)"/></g><g id="LWPOLYLINE-26" data-name="LWPOLYLINE"><path class="cls-1" d="M859.2,708.55H838.77a15.37,15.37,0,0,0,5.35,10.86" transform="translate(-391.14 -389.52)"/></g><g id="LWPOLYLINE-27" data-name="LWPOLYLINE"><path class="cls-1" d="M876.3,697.69H853.85a15.38,15.38,0,0,0,5.35,10.86" transform="translate(-391.14 -389.52)"/></g><g id="LWPOLYLINE-28" data-name="LWPOLYLINE"><path class="cls-1" d="M867.49,652.07Z" transform="translate(-391.14 -389.52)"/></g><g id="LWPOLYLINE-29" data-name="LWPOLYLINE"><path class="cls-1" d="M829.09,677.85,504.56,444.09a33.34,33.34,0,0,0-19.51-6.33H419c-10.49,0-19-8.75-19-19.54s8.5-19.54,19-19.54h66.09A70.34,70.34,0,0,1,526.28,412l324.5,233.74a33.36,33.36,0,0,0,19.51,6.33h70.57c10.49,0,19,8.75,19,19.54a19.27,19.27,0,0,1-19,19.53H870.21a70.4,70.4,0,0,1-41.15-13.34" transform="translate(-391.14 -389.52)"/></g><g id="LWPOLYLINE-30" data-name="LWPOLYLINE"><polyline class="cls-1" points="95.4 59.91 46.31 59.91 46.31 97.78 89.32 97.78 437.59 348.64 517.89 348.64 517.89 313.32 472.04 313.32"/></g><g id="LWPOLYLINE-31" data-name="LWPOLYLINE"><path class="cls-1" d="M863.17,702.84a82.17,82.17,0,0,1-40.71-15.24L797.3,669.48l-87.07-62.72L623.17,544,536.1,481.33l-38.58-27.79a22.08,22.08,0,0,0-11-4.11" transform="translate(-391.14 -389.52)"/></g><g id="LWPOLYLINE-32" data-name="LWPOLYLINE"><path class="cls-1" d="M391.14,418.22c0,15.85,12.49,28.7,27.9,28.7h66a24.61,24.61,0,0,1,14.4,4.67L824,685.37a81.64,81.64,0,0,0,46.19,15h70.67c15.41,0,27.91-12.85,27.91-28.7s-12.5-28.71-27.91-28.71H870.29a24.63,24.63,0,0,1-14.4-4.67L531.39,404.52a79.13,79.13,0,0,0-46.26-15H419C403.63,389.52,391.14,402.37,391.14,418.22Z" transform="translate(-391.14 -389.52)"/></g><g id="LWPOLYLINE-33" data-name="LWPOLYLINE"><path class="cls-1" d="M808.37,675.48a15.38,15.38,0,0,0,5.35-10.86H793.29" transform="translate(-391.14 -389.52)"/></g><g id="LWPOLYLINE-34" data-name="LWPOLYLINE"><path class="cls-1" d="M822.12,687.35a15.32,15.32,0,0,0,6.68-11.87H808.37" transform="translate(-391.14 -389.52)"/></g><g id="LWPOLYLINE-35" data-name="LWPOLYLINE"><path class="cls-1" d="M793.29,664.62a15.43,15.43,0,0,0,5.35-10.87H778.21" transform="translate(-391.14 -389.52)"/></g><g id="LWPOLYLINE-36" data-name="LWPOLYLINE"><path class="cls-1" d="M778.21,653.75a15.35,15.35,0,0,0,5.34-10.86H763.13" transform="translate(-391.14 -389.52)"/></g><g id="LWPOLYLINE-37" data-name="LWPOLYLINE"><path class="cls-1" d="M763.13,642.89A15.35,15.35,0,0,0,768.47,632H748.05" transform="translate(-391.14 -389.52)"/></g><g id="LWPOLYLINE-38" data-name="LWPOLYLINE"><path class="cls-1" d="M748.05,632a15.37,15.37,0,0,0,5.34-10.86H733" transform="translate(-391.14 -389.52)"/></g><g id="LWPOLYLINE-39" data-name="LWPOLYLINE"><path class="cls-1" d="M733,621.17a15.38,15.38,0,0,0,5.34-10.87H717.89" transform="translate(-391.14 -389.52)"/></g><g id="LWPOLYLINE-40" data-name="LWPOLYLINE"><path class="cls-1" d="M717.89,610.3a15.35,15.35,0,0,0,5.34-10.86H702.81" transform="translate(-391.14 -389.52)"/></g><g id="LWPOLYLINE-41" data-name="LWPOLYLINE"><path class="cls-1" d="M702.81,599.44a15.37,15.37,0,0,0,5.34-10.86H687.73" transform="translate(-391.14 -389.52)"/></g><g id="LWPOLYLINE-42" data-name="LWPOLYLINE"><path class="cls-1" d="M687.73,588.58a15.38,15.38,0,0,0,5.34-10.87H672.65" transform="translate(-391.14 -389.52)"/></g><g id="LWPOLYLINE-43" data-name="LWPOLYLINE"><path class="cls-1" d="M672.65,577.71A15.34,15.34,0,0,0,678,566.85H657.57" transform="translate(-391.14 -389.52)"/></g><g id="LWPOLYLINE-44" data-name="LWPOLYLINE"><path class="cls-1" d="M657.57,566.85A15.35,15.35,0,0,0,662.91,556H642.49" transform="translate(-391.14 -389.52)"/></g><g id="LWPOLYLINE-45" data-name="LWPOLYLINE"><path class="cls-1" d="M642.49,556a15.37,15.37,0,0,0,5.34-10.86H627.41" transform="translate(-391.14 -389.52)"/></g><g id="LWPOLYLINE-46" data-name="LWPOLYLINE"><path class="cls-1" d="M627.41,545.13a15.38,15.38,0,0,0,5.34-10.87H612.33" transform="translate(-391.14 -389.52)"/></g><g id="LWPOLYLINE-47" data-name="LWPOLYLINE"><path class="cls-1" d="M612.33,534.26a15.35,15.35,0,0,0,5.34-10.86H597.25" transform="translate(-391.14 -389.52)"/></g><g id="LWPOLYLINE-48" data-name="LWPOLYLINE"><path class="cls-1" d="M597.25,523.4a15.35,15.35,0,0,0,5.34-10.86H582.17" transform="translate(-391.14 -389.52)"/></g><g id="LWPOLYLINE-49" data-name="LWPOLYLINE"><path class="cls-1" d="M582.17,512.54a15.37,15.37,0,0,0,5.34-10.86H567.09" transform="translate(-391.14 -389.52)"/></g><g id="LWPOLYLINE-50" data-name="LWPOLYLINE"><path class="cls-1" d="M567.09,501.68a15.38,15.38,0,0,0,5.34-10.87H552" transform="translate(-391.14 -389.52)"/></g><g id="LWPOLYLINE-51" data-name="LWPOLYLINE"><path class="cls-1" d="M552,490.81A15.35,15.35,0,0,0,557.35,480H536.93" transform="translate(-391.14 -389.52)"/></g><g id="LWPOLYLINE-52" data-name="LWPOLYLINE"><path class="cls-1" d="M536.93,480a15.35,15.35,0,0,0,5.34-10.86H521.85" transform="translate(-391.14 -389.52)"/></g><g id="LWPOLYLINE-53" data-name="LWPOLYLINE"><path class="cls-1" d="M521.85,469.09a15.37,15.37,0,0,0,5.34-10.86H506.77" transform="translate(-391.14 -389.52)"/></g><g id="LWPOLYLINE-54" data-name="LWPOLYLINE"><path class="cls-1" d="M506.77,458.23a15.38,15.38,0,0,0,5.34-10.87H489.67" transform="translate(-391.14 -389.52)"/></g></svg>