<svg width="301" height="741" viewBox="0 0 301 741" fill="none" xmlns="http://www.w3.org/2000/svg">
<rect x="88" y="699" width="19" height="40" fill="#FF0202"/>
<line x1="87.5" y1="-2.18557e-08" x2="87.5" y2="740" stroke="#FF0202"/>
<line x1="107.5" y1="-2.18557e-08" x2="107.5" y2="740" stroke="#FF0202"/>
<rect x="34.2446" y="679.836" width="266.256" height="59.7399" stroke="black"/>
<mask id="path-5-inside-1_0_12" fill="white">
<path fill-rule="evenodd" clip-rule="evenodd" d="M301 391.135H32.3945V577.753H0V680.336H301V577.753L301 391.135Z"/>
</mask>
<path fill-rule="evenodd" clip-rule="evenodd" d="M301 391.135H32.3945V577.753H0V680.336H301V577.753L301 391.135Z" fill="white"/>
<path d="M32.3945 391.135V390.135H31.3945V391.135H32.3945ZM301 391.135L302 391.135L302 390.135H301V391.135ZM32.3945 577.753V578.753H33.3945V577.753H32.3945ZM0 577.753V576.753H-1V577.753H0ZM0 680.336H-1V681.336H0V680.336ZM301 680.336V681.336H302V680.336H301ZM301 577.753L302 577.753L302 577.753L301 577.753ZM32.3945 392.135H301V390.135H32.3945V392.135ZM33.3945 577.753V391.135H31.3945V577.753H33.3945ZM0 578.753H32.3945V576.753H0V578.753ZM1 680.336V577.753H-1V680.336H1ZM301 679.336H0V681.336H301V679.336ZM300 577.753V680.336H302V577.753H300ZM300 391.135L300 577.753L302 577.753L302 391.135L300 391.135Z" fill="black" mask="url(#path-5-inside-1_0_12)"/>
<rect x="7.24902" y="272.505" width="260.857" height="119.13" stroke="black"/>
<rect x="7.24902" y="149.325" width="225.762" height="123.179" stroke="black"/>
<rect x="34.2446" y="0.5" width="198.767" height="148.825" stroke="black"/>
<path d="M26 656V680H12V618L241 392H290V416H266V440H242V464H218V488H194V512H170V536H146V560H122V584H98V608H74V632H50V656H26Z" fill="#5CC48B" stroke="black"/>
</svg>
